<mxfile host="app.diagrams.net" modified="2023-02-11T00:54:01.689Z" agent="5.0 (Windows NT 10.0; Win64; x64) AppleWebKit/537.36 (KHTML, like Gecko) Chrome/109.0.0.0 Safari/537.36" etag="uTyV9bShMJohDausQm33" version="20.8.20" type="github">
  <diagram name="Page-1" id="rtSfq0RPSuM8lxgOxE5Q">
    <mxGraphModel dx="1834" dy="756" grid="0" gridSize="10" guides="1" tooltips="1" connect="1" arrows="1" fold="1" page="0" pageScale="1" pageWidth="827" pageHeight="1169" math="0" shadow="0">
      <root>
        <mxCell id="0" />
        <mxCell id="1" parent="0" />
        <mxCell id="z0-DaT5UMs1q9wHdrUX7-1" style="edgeStyle=orthogonalEdgeStyle;rounded=0;orthogonalLoop=1;jettySize=auto;html=1;" parent="1" source="z0-DaT5UMs1q9wHdrUX7-3" target="z0-DaT5UMs1q9wHdrUX7-6" edge="1">
          <mxGeometry relative="1" as="geometry" />
        </mxCell>
        <mxCell id="z0-DaT5UMs1q9wHdrUX7-22" style="edgeStyle=none;curved=1;rounded=0;orthogonalLoop=1;jettySize=auto;html=1;entryX=0;entryY=0.5;entryDx=0;entryDy=0;fontSize=12;startSize=8;endSize=8;" parent="1" source="z0-DaT5UMs1q9wHdrUX7-3" target="z0-DaT5UMs1q9wHdrUX7-19" edge="1">
          <mxGeometry relative="1" as="geometry" />
        </mxCell>
        <mxCell id="z0-DaT5UMs1q9wHdrUX7-23" style="edgeStyle=none;curved=1;rounded=0;orthogonalLoop=1;jettySize=auto;html=1;entryX=0;entryY=0.5;entryDx=0;entryDy=0;fontSize=12;startSize=8;endSize=8;" parent="1" source="z0-DaT5UMs1q9wHdrUX7-3" target="z0-DaT5UMs1q9wHdrUX7-20" edge="1">
          <mxGeometry relative="1" as="geometry" />
        </mxCell>
        <mxCell id="z0-DaT5UMs1q9wHdrUX7-24" style="edgeStyle=none;curved=1;rounded=0;orthogonalLoop=1;jettySize=auto;html=1;entryX=0.015;entryY=0.678;entryDx=0;entryDy=0;entryPerimeter=0;fontSize=12;startSize=8;endSize=8;" parent="1" source="z0-DaT5UMs1q9wHdrUX7-3" edge="1">
          <mxGeometry relative="1" as="geometry">
            <mxPoint x="215.80000000000018" y="385.24" as="targetPoint" />
          </mxGeometry>
        </mxCell>
        <mxCell id="z0-DaT5UMs1q9wHdrUX7-3" value="order processing clerk" style="shape=umlActor;verticalLabelPosition=bottom;verticalAlign=top;html=1;outlineConnect=0;" parent="1" vertex="1">
          <mxGeometry x="40" y="240" width="32" height="60" as="geometry" />
        </mxCell>
        <mxCell id="z0-DaT5UMs1q9wHdrUX7-4" value="" style="rounded=0;whiteSpace=wrap;html=1;" parent="1" vertex="1">
          <mxGeometry x="70" y="40" width="571" height="60" as="geometry" />
        </mxCell>
        <mxCell id="z0-DaT5UMs1q9wHdrUX7-5" value="GOLDENSMILE ORDER FULFILLMENT SYSTEM" style="text;strokeColor=none;fillColor=none;html=1;fontSize=24;fontStyle=1;verticalAlign=middle;align=center;" parent="1" vertex="1">
          <mxGeometry x="310" y="50" width="100" height="40" as="geometry" />
        </mxCell>
        <mxCell id="z0-DaT5UMs1q9wHdrUX7-6" value="order product" style="ellipse;whiteSpace=wrap;html=1;" parent="1" vertex="1">
          <mxGeometry x="220" y="230" width="120" height="80" as="geometry" />
        </mxCell>
        <mxCell id="z0-DaT5UMs1q9wHdrUX7-8" style="edgeStyle=orthogonalEdgeStyle;rounded=0;orthogonalLoop=1;jettySize=auto;html=1;" parent="1" source="z0-DaT5UMs1q9wHdrUX7-9" edge="1">
          <mxGeometry relative="1" as="geometry">
            <mxPoint x="542" y="625" as="targetPoint" />
          </mxGeometry>
        </mxCell>
        <mxCell id="z0-DaT5UMs1q9wHdrUX7-9" value="Finance Department" style="shape=umlActor;verticalLabelPosition=bottom;verticalAlign=top;html=1;outlineConnect=0;" parent="1" vertex="1">
          <mxGeometry x="663" y="573" width="53" height="105" as="geometry" />
        </mxCell>
        <mxCell id="z0-DaT5UMs1q9wHdrUX7-10" value="credit check" style="ellipse;whiteSpace=wrap;html=1;" parent="1" vertex="1">
          <mxGeometry x="417" y="593" width="120" height="80" as="geometry" />
        </mxCell>
        <mxCell id="z0-DaT5UMs1q9wHdrUX7-11" style="edgeStyle=orthogonalEdgeStyle;rounded=0;orthogonalLoop=1;jettySize=auto;html=1;entryX=1;entryY=0.5;entryDx=0;entryDy=0;" parent="1" source="z0-DaT5UMs1q9wHdrUX7-13" target="z0-DaT5UMs1q9wHdrUX7-14" edge="1">
          <mxGeometry relative="1" as="geometry" />
        </mxCell>
        <mxCell id="z0-DaT5UMs1q9wHdrUX7-12" style="edgeStyle=orthogonalEdgeStyle;rounded=0;orthogonalLoop=1;jettySize=auto;html=1;entryX=1;entryY=0.5;entryDx=0;entryDy=0;" parent="1" source="z0-DaT5UMs1q9wHdrUX7-13" target="z0-DaT5UMs1q9wHdrUX7-15" edge="1">
          <mxGeometry relative="1" as="geometry" />
        </mxCell>
        <mxCell id="z0-DaT5UMs1q9wHdrUX7-13" value="Transport Department" style="shape=umlActor;verticalLabelPosition=bottom;verticalAlign=top;html=1;outlineConnect=0;" parent="1" vertex="1">
          <mxGeometry x="670" y="240" width="30" height="60" as="geometry" />
        </mxCell>
        <mxCell id="z0-DaT5UMs1q9wHdrUX7-14" value="deliver goods" style="ellipse;whiteSpace=wrap;html=1;" parent="1" vertex="1">
          <mxGeometry x="420" y="230" width="120" height="80" as="geometry" />
        </mxCell>
        <mxCell id="z0-DaT5UMs1q9wHdrUX7-15" value="check stock" style="ellipse;whiteSpace=wrap;html=1;" parent="1" vertex="1">
          <mxGeometry x="420" y="350" width="120" height="80" as="geometry" />
        </mxCell>
        <mxCell id="z0-DaT5UMs1q9wHdrUX7-16" style="edgeStyle=orthogonalEdgeStyle;rounded=0;orthogonalLoop=1;jettySize=auto;html=1;entryX=1;entryY=0.5;entryDx=0;entryDy=0;" parent="1" source="z0-DaT5UMs1q9wHdrUX7-17" target="z0-DaT5UMs1q9wHdrUX7-18" edge="1">
          <mxGeometry relative="1" as="geometry" />
        </mxCell>
        <mxCell id="z0-DaT5UMs1q9wHdrUX7-17" value="Inventory Department" style="shape=umlActor;verticalLabelPosition=bottom;verticalAlign=top;html=1;outlineConnect=0;" parent="1" vertex="1">
          <mxGeometry x="670" y="460" width="30" height="60" as="geometry" />
        </mxCell>
        <mxCell id="z0-DaT5UMs1q9wHdrUX7-18" value="replenish stock" style="ellipse;whiteSpace=wrap;html=1;" parent="1" vertex="1">
          <mxGeometry x="420" y="450" width="120" height="80" as="geometry" />
        </mxCell>
        <mxCell id="z0-DaT5UMs1q9wHdrUX7-19" value="check order status" style="ellipse;whiteSpace=wrap;html=1;fontSize=16;" parent="1" vertex="1">
          <mxGeometry x="217" y="457" width="126" height="80" as="geometry" />
        </mxCell>
        <mxCell id="z0-DaT5UMs1q9wHdrUX7-20" value="cancel order" style="ellipse;whiteSpace=wrap;html=1;fontSize=16;" parent="1" vertex="1">
          <mxGeometry x="212" y="589" width="131" height="80" as="geometry" />
        </mxCell>
        <mxCell id="_miax59Te1LVYWlp3cWW-2" style="rounded=0;orthogonalLoop=1;jettySize=auto;html=1;fontSize=12;endWidth=6.666666666666667;" parent="1" source="_miax59Te1LVYWlp3cWW-1" edge="1">
          <mxGeometry relative="1" as="geometry">
            <mxPoint x="49" y="352" as="targetPoint" />
          </mxGeometry>
        </mxCell>
        <mxCell id="_miax59Te1LVYWlp3cWW-4" style="edgeStyle=none;curved=1;rounded=0;orthogonalLoop=1;jettySize=auto;html=1;entryX=0;entryY=0.5;entryDx=0;entryDy=0;fontSize=12;startSize=8;endSize=8;" parent="1" source="_miax59Te1LVYWlp3cWW-1" target="_miax59Te1LVYWlp3cWW-3" edge="1">
          <mxGeometry relative="1" as="geometry" />
        </mxCell>
        <mxCell id="_miax59Te1LVYWlp3cWW-1" value="section manager" style="shape=umlActor;verticalLabelPosition=bottom;verticalAlign=top;html=1;outlineConnect=0;" parent="1" vertex="1">
          <mxGeometry x="26" y="755" width="46" height="60" as="geometry" />
        </mxCell>
        <mxCell id="_miax59Te1LVYWlp3cWW-3" value="generate reports" style="ellipse;whiteSpace=wrap;html=1;fontSize=16;" parent="1" vertex="1">
          <mxGeometry x="214" y="746" width="131" height="80" as="geometry" />
        </mxCell>
        <mxCell id="_miax59Te1LVYWlp3cWW-5" value="manage products" style="ellipse;whiteSpace=wrap;html=1;fontSize=16;" parent="1" vertex="1">
          <mxGeometry x="218" y="345" width="127" height="80" as="geometry" />
        </mxCell>
        <mxCell id="_miax59Te1LVYWlp3cWW-7" value="archive orders" style="ellipse;whiteSpace=wrap;html=1;fontSize=16;" parent="1" vertex="1">
          <mxGeometry x="417" y="746" width="113" height="80" as="geometry" />
        </mxCell>
        <mxCell id="_miax59Te1LVYWlp3cWW-9" style="edgeStyle=none;curved=1;rounded=0;orthogonalLoop=1;jettySize=auto;html=1;fontSize=12;startSize=8;endSize=8;" parent="1" source="_miax59Te1LVYWlp3cWW-8" edge="1">
          <mxGeometry relative="1" as="geometry">
            <mxPoint x="538.4285714285716" y="793" as="targetPoint" />
          </mxGeometry>
        </mxCell>
        <mxCell id="_miax59Te1LVYWlp3cWW-8" value="system" style="shape=umlActor;verticalLabelPosition=bottom;verticalAlign=top;html=1;outlineConnect=0;" parent="1" vertex="1">
          <mxGeometry x="666" y="741" width="53" height="105" as="geometry" />
        </mxCell>
      </root>
    </mxGraphModel>
  </diagram>
</mxfile>
